# xmcd
#
# Track frame offsets: 
#        150
#        31009
#        161161
#        178938
#        212813
#
# Disc length: 3313 seconds
#
# Revision: 0
# Processed by: cddbd v1.5.2PL0 Copyright (c) Steve Scherf et al.
# Submitted via: ExactAudioCopy v0.99pb5
#
DISCID=3f0cef05
DTITLE=Yes  - Yesshows [Disc 2]  (2009,SHM-CD.WPCR-13526)
DYEAR=1900
DGENRE=
TTITLE0=Don't Kill the Whale
TTITLE1=Ritual, Pts. 1 and 2
TTITLE2=Wonderous Stories
TTITLE3=I've Seen All Good People(Live)
TTITLE4=Roundabout(Live)
EXTD=
EXTT0=
EXTT1=
EXTT2=
EXTT3=
EXTT4=
PLAYORDER=
